<svg width="227" height="99" viewBox="0 0 227 99" fill="none" xmlns="http://www.w3.org/2000/svg">
<path d="M0 46.5506C0 46.5506 16.3024 45.0155 51.61 16.8214L47.0047 15.2862L50.6587 12.6917H53.7289L70.5502 0H74.5718C74.5718 0 56.5829 13.7511 46.9614 21.9024C37.34 30.0536 28.605 40.0426 25.9023 46.5506H0Z" fill="#5EBAE9"/>
<path d="M47.956 24.1514C47.956 24.1514 35.2643 36.9512 34.8102 46.5294H28.8644C28.8644 46.551 32.5616 36.9512 47.956 24.1514Z" fill="#5EBAE9"/>
<path d="M2.8324 52.5829V82.2041H42.0318V52.5829H2.8324ZM12.4322 78.5717C12.1728 78.5501 12.2377 78.4852 12.2593 78.2258C12.2593 78.0528 12.2593 77.8582 12.2809 77.6853C12.2809 77.2961 12.3025 76.9285 12.3025 76.5609C12.389 73.2745 12.4971 70.0097 12.6052 66.7233C15.3944 65.1017 18.1619 63.4801 20.951 61.8585C21.2537 61.6855 21.6862 61.5125 21.8159 61.1882C21.9456 60.799 21.578 60.518 21.2321 60.518C20.8862 60.518 20.6051 60.7125 20.3024 60.8855C19.9565 61.0801 19.6321 61.2747 19.2646 61.4693C18.5943 61.8585 17.8808 62.2477 17.2105 62.6152C15.8268 63.372 14.4646 64.1503 13.1025 64.9503C12.9728 65.0152 12.8431 65.0801 12.6917 65.0801C12.562 65.0801 12.4322 64.9936 12.3241 64.9287C11.6539 64.4747 10.9404 63.999 10.2701 63.5449C10.0323 63.3936 9.79445 63.199 9.75121 62.9395C9.68634 62.5287 10.1188 62.2044 10.4647 62.0098C14.3782 59.8909 18.2916 57.7504 22.2051 55.6315C26.0753 58.118 29.9455 60.6044 33.7941 63.0693C29.859 65.3395 25.9239 67.5665 22.0105 69.8367C19.87 68.5178 17.7078 67.2422 15.5673 65.9233C15.1133 66.2908 14.6592 66.68 14.2052 67.026C14.0755 67.1341 13.9457 67.2422 13.8593 67.4151C13.7944 67.5665 13.816 67.7611 13.816 67.9341C14.1187 71.4799 14.3782 75.0258 14.6809 78.615C13.9457 78.5717 13.1457 78.6582 12.4322 78.5717ZM34.6589 65.1017C33.8806 65.9665 24.0213 77.0582 24.0213 77.0582C24.0213 77.0582 22.378 79.069 20.9727 77.8582C19.5673 76.6474 14.5944 70.7881 14.5944 70.7881V68.5827C14.5944 68.4097 14.6376 68.2584 14.7025 68.1719C14.8971 67.8692 15.3511 67.8476 15.7835 68.107C16.4322 68.4746 22.4645 72.2151 22.4645 72.2151C22.4645 72.2151 33.7508 64.0855 33.8373 63.999C34.1616 63.7828 34.767 63.5449 35.0481 63.9341C35.3076 64.3233 34.8968 64.8422 34.6589 65.1017Z" fill="#5EBAE9"/>
<path d="M70.2043 79.7606C70.0313 78.5931 65.3395 61.5771 65.3395 61.5771C65.3395 61.5771 64.7557 58.5501 62.1612 57.4907C59.3288 56.3448 55.545 57.2529 54.2478 60.1934C53.3397 62.2474 52.864 64.5609 52.237 66.7014C51.6316 68.8202 51.0262 70.9175 50.3992 73.058C50.0749 74.1391 49.7938 75.2201 49.4695 76.3228C49.3397 76.8201 48.9073 77.8796 48.7776 78.8741C48.6479 79.8255 48.7776 80.6903 49.7289 80.8201C50.8965 80.993 52.1505 80.8201 52.1505 80.8201C52.1505 80.8201 52.9937 80.9282 53.5126 79.393C54.0532 77.8579 54.6369 75.112 54.6369 75.112H64.1719L65.4908 79.6093C65.4908 79.6093 65.5989 80.6471 67.3286 80.8849H69.4043C69.3827 80.9065 70.3772 80.9282 70.2043 79.7606ZM55.9342 70.6797L57.4045 64.9284C57.6207 63.9771 58.0747 62.3771 59.0477 61.9231C60.7774 61.1231 61.3179 63.8041 61.599 64.8852C62.0963 66.8311 62.6368 68.7554 63.1557 70.6797H55.9342Z" fill="#5EBAE9"/>
<path d="M116.214 79.7606C116.041 78.5931 111.35 61.5771 111.35 61.5771C111.35 61.5771 110.766 58.5501 108.171 57.4907C105.339 56.3448 101.555 57.2529 100.258 60.1934C99.3498 62.2474 98.8741 64.5609 98.2471 66.7014C97.6417 68.8202 97.0363 70.9175 96.4093 73.058C96.085 74.1391 95.8039 75.2201 95.4796 76.3228C95.3499 76.8201 94.9174 77.8796 94.7877 78.8741C94.658 79.8255 94.7877 80.6903 95.7391 80.8201C96.9066 80.993 98.1606 80.8201 98.1606 80.8201C98.1606 80.8201 99.0039 80.9282 99.5228 79.393C100.063 77.8579 100.647 75.112 100.647 75.112H110.182L111.501 79.6093C111.501 79.6093 111.609 80.6471 113.339 80.8849H115.414C115.393 80.9065 116.387 80.9282 116.214 79.7606ZM101.944 70.6797L103.415 64.9284C103.631 63.9771 104.085 62.3771 105.058 61.9231C106.788 61.1231 107.328 63.8041 107.609 64.8852C108.106 66.8311 108.647 68.7554 109.166 70.6797H101.944Z" fill="#5EBAE9"/>
<path d="M87.696 76.4096C88.2797 76.2583 88.8635 76.1502 89.4689 76.1934C90.6581 76.2583 90.4202 77.7718 90.4419 78.6366C90.4419 79.1123 90.4419 79.6096 90.204 80.0204C89.8149 80.669 89.0149 80.8852 88.2581 81.0149C86.3771 81.3609 84.4744 81.5555 82.615 81.4041C78.9177 81.0798 75.307 79.1123 74.5502 75.2637C74.2043 73.534 74.334 71.761 74.3556 70.0097C74.3773 68.1503 74.2908 66.3125 74.5502 64.4747C74.8097 62.6369 75.5016 60.8207 76.8205 59.5234C78.6583 57.7288 81.3826 57.2748 83.9339 57.1883C85.4041 57.1234 86.896 57.1667 88.323 57.5775C88.8635 57.7288 89.4257 57.9667 89.8148 58.3991C90.4202 59.0477 90.4851 60.0207 90.5067 60.9288C90.5067 61.3396 90.5067 61.7936 90.204 62.0531C89.8797 62.3558 89.3824 62.3342 88.95 62.2693C86.4635 61.945 83.8474 61.4477 81.5555 62.4855C80.7339 62.8531 79.9988 63.4152 79.588 64.2152C79.1556 65.0368 79.1123 66.0098 79.0907 66.9179C79.0691 67.9773 79.0258 69.0584 79.0042 70.1394C78.961 71.8691 78.961 73.7286 79.9555 75.134C80.6258 76.0853 81.6852 76.7123 82.8312 76.9718C83.9771 77.2312 85.1663 77.1231 86.2906 76.8637C86.723 76.7123 87.1987 76.5393 87.696 76.4096Z" fill="#5EBAE9"/>
<path d="M139.825 68.9719C139.825 67.4584 139.911 65.9233 139.76 64.4098C139.609 62.8963 139.176 61.3612 138.203 60.1937C137.209 58.9829 135.695 58.2477 134.182 57.8586C131.911 57.318 129.555 57.4694 127.22 57.5126C126.312 57.5342 125.382 57.5126 124.517 57.7072C123.652 57.9018 122.787 58.3342 122.225 59.091C121.598 59.9774 121.533 61.1234 121.512 62.2044V62.3774C121.468 67.2638 121.425 72.1286 121.555 76.9934C121.62 79.8474 123.22 80.8204 125.944 80.8852C128.841 80.9501 131.782 81.0366 134.528 80.1285C136.106 79.6096 137.641 78.7015 138.592 77.2961C139.414 76.1285 139.738 74.6799 139.868 73.2313C139.955 71.8475 139.846 70.4205 139.825 68.9719ZM134.938 73.0583C134.938 74.1394 134.247 75.1772 133.338 75.7177C132.387 76.2799 131.414 76.2583 130.333 76.2583C129.468 76.2583 128.603 76.2799 127.739 76.2366C126.42 76.1718 126.485 74.9826 126.485 74.9826V64.2801C126.485 64.0206 126.463 63.6963 126.485 63.372C126.571 61.8801 127.76 62.0531 128.928 62.0531H130.701C131.652 62.0531 132.884 62.5288 132.884 62.5288C135.003 63.372 134.96 65.7936 134.96 65.7936L134.938 73.0583Z" fill="#5EBAE9"/>
<path d="M169.251 64.1936C168.905 69.1881 168.581 74.2043 168.235 79.1988C168.214 79.588 168.192 79.9988 168.387 80.3015C168.689 80.7555 169.273 80.842 169.814 80.8852C170.83 80.9933 172.041 80.9933 172.668 80.1934C172.992 79.7609 173.057 79.1988 173.1 78.6582C173.554 73.6421 173.857 68.6043 174.073 63.545C174.095 63.0044 174.181 62.1612 174.549 61.7288C175.262 60.9072 175.803 62.0963 175.868 62.7666C176.343 67.0476 176.841 71.307 177.316 75.5664C177.468 76.9069 177.662 78.3339 178.505 79.3717C179.586 80.6906 181.489 81.0366 183.154 80.8636C183.911 80.7771 184.667 80.6042 185.251 80.1069C186.094 79.4366 186.375 78.3339 186.635 77.2961C187.673 72.5178 187.889 67.6098 188.473 62.7882C188.538 62.2044 188.797 61.4477 189.381 61.4477C190.008 61.4261 190.267 62.2693 190.289 62.8963C190.613 68.0854 190.894 73.2962 191.219 78.4853C191.24 79.0258 191.284 79.588 191.608 80.042C192.213 80.9501 193.511 80.9501 194.592 80.8636C195.089 80.8204 195.673 80.7339 195.932 80.3015C196.083 80.042 196.083 79.6744 196.062 79.3501C195.716 73.8583 195.392 68.3665 195.024 62.8963C194.873 60.518 194.094 58.3342 191.738 57.3829C189.965 56.691 187.565 56.5613 186.073 57.9667C185.554 58.4423 185.23 59.091 184.992 59.7612C184.105 62.0531 183.932 64.5395 183.716 67.0044C183.457 70.2476 183.067 73.4691 182.613 76.6907C182.592 76.7772 182.592 76.8421 182.549 76.9285C182.419 77.1448 182.051 77.1015 181.9 76.9285C181.727 76.7556 181.705 76.4529 181.684 76.1934C181.208 71.8043 180.711 67.4152 180.235 63.0261C180.062 61.3828 179.803 59.5666 178.613 58.4207C177.857 57.664 176.776 57.318 175.716 57.1451C173.986 56.8856 172.041 57.1234 170.83 58.3991C169.684 59.6099 169.489 61.4261 169.381 63.1125C169.295 63.4801 169.273 63.8477 169.251 64.1936Z" fill="#5EBAE9"/>
<path d="M209.121 71.8691V79.3933C209.121 80.6474 210.851 80.9717 211.716 80.9717H212.883C212.883 80.9717 214.051 81.0582 214.137 79.6312C214.202 78.2042 214.137 71.8691 214.137 71.8691C214.137 71.8691 215.867 70.9178 216.688 69.3827C217.51 67.8476 222.202 59.0261 222.202 59.0261C222.353 58.7234 222.894 57.491 222.202 57.491H219.024C219.024 57.491 217.77 57.4261 217.078 58.745C216.256 60.2369 215.521 61.7936 214.764 63.3287C214.267 64.3666 213.834 65.426 213.272 66.4206C212.905 67.0692 212.256 68.0422 211.37 67.7178C210.699 67.48 210.289 66.5071 209.943 65.9017C209.489 65.0801 209.078 64.2584 208.624 63.4152C207.824 61.9017 207.045 60.3882 206.267 58.8747C205.813 57.9883 205.554 57.5342 204.472 57.491C203.218 57.4261 201.986 57.491 201.986 57.491C201.986 57.491 200.451 57.5559 201.035 58.918C201.618 60.2801 206.959 70.0313 206.959 70.0313C206.959 70.0313 207.845 71.6313 209.121 71.8691Z" fill="#5EBAE9"/>
<path d="M210.764 39.9129C209.726 39.7615 208.775 39.4372 208.018 38.7237C207.11 37.8589 206.699 36.6048 206.634 35.3508C206.591 34.2914 206.743 33.2103 207.305 32.3238C207.997 31.1995 209.272 30.4644 210.57 30.1401C211.867 29.7941 213.207 29.7941 214.57 29.7941H226.85V33.3833C222.137 33.3833 217.445 33.3833 212.732 33.3616C212.04 33.3616 211.283 33.3833 210.743 33.8373C210.332 34.1832 210.137 34.7238 210.224 35.2211C210.31 35.7184 210.678 36.194 211.153 36.367C211.521 36.4967 211.91 36.4967 212.278 36.4967H215.197C216.083 36.4967 217.034 36.4102 217.921 36.5183C219.434 36.7562 220.753 37.9886 221.359 39.3507C222.029 40.8642 221.921 42.702 221.121 44.1507C220.667 45.0155 219.996 45.7723 219.132 46.2047C218.029 46.7668 216.71 46.7885 215.478 46.7885C210.634 46.7885 205.791 46.7668 200.97 46.7668V43.048H215.78C216.602 43.048 217.553 43.0047 218.094 42.3777C218.634 41.7507 218.483 40.6264 217.748 40.2156C217.272 39.9129 216.688 39.9129 216.148 39.9561C215.218 39.9778 214.288 39.9778 213.337 39.9994C212.472 40.0642 211.607 40.0642 210.764 39.9129Z" fill="#5EBAE9"/>
<path d="M120.841 39.9129C119.803 39.7615 118.852 39.4372 118.095 38.7237C117.187 37.8589 116.777 36.6048 116.712 35.3508C116.668 34.2914 116.82 33.2103 117.382 32.3238C118.074 31.1995 119.349 30.4644 120.647 30.1401C121.944 29.7941 123.285 29.7941 124.647 29.7941H136.928V33.3833C132.214 33.3833 127.522 33.3833 122.809 33.3616C122.117 33.3616 121.36 33.3833 120.82 33.8373C120.409 34.1832 120.214 34.7238 120.301 35.2211C120.387 35.7184 120.755 36.194 121.23 36.367C121.598 36.4967 121.987 36.4967 122.355 36.4967H125.274C126.16 36.4967 127.111 36.4102 127.976 36.5183C129.49 36.7562 130.809 37.9886 131.414 39.3507C132.084 40.8642 131.976 42.702 131.198 44.1507C130.744 45.0155 130.074 45.7723 129.209 46.2047C128.106 46.7668 126.787 46.7885 125.555 46.7885C120.712 46.7885 115.868 46.7668 111.047 46.7668V43.048H125.857C126.679 43.048 127.63 43.0047 128.171 42.3777C128.711 41.7507 128.56 40.6264 127.825 40.2156C127.349 39.9129 126.766 39.9129 126.225 39.9561C125.295 39.9778 124.366 39.9778 123.414 39.9994C122.571 40.0642 121.685 40.0642 120.841 39.9129Z" fill="#5EBAE9"/>
<path d="M193.619 29.7946H197.056V31.7837C198.786 30.1621 201.316 29.6432 203.651 29.7946V33.4053C202.008 33.3188 200.256 33.5567 198.916 34.5729C197.251 35.8485 196.991 37.6431 196.991 39.589V46.6159H193.597L193.619 29.7946Z" fill="#5EBAE9"/>
<path d="M163.478 21.6213H160.127V46.5722H163.478V21.6213Z" fill="#5EBAE9"/>
<path d="M156.516 32.9512H153.165V46.551H156.516V32.9512Z" fill="#5EBAE9"/>
<path d="M138.117 21.8379H134.765V46.724H138.117V21.8379Z" fill="#5EBAE9"/>
<path d="M179.932 30.0107H150.571V33.362H179.932V30.0107Z" fill="#5EBAE9"/>
<path d="M170.916 21.6213H167.565V46.5722H170.916V21.6213Z" fill="#5EBAE9"/>
<path d="M138.117 36.0215L144.884 30.0107H150.116L140.603 38.2485L150.354 46.5943H145.252L138.117 40.7349L137.317 37.1458L138.117 36.0215Z" fill="#5EBAE9"/>
<path d="M154.852 25.6426C155.716 25.6426 156.43 26.3561 156.43 27.2209C156.43 28.0858 155.716 28.7993 154.852 28.7993C153.987 28.7993 153.273 28.0858 153.273 27.2209C153.273 26.3561 153.965 25.6426 154.852 25.6426Z" fill="#5EBAE9"/>
<path d="M186.116 41.8804C186.116 41.8804 184.3 43.5669 181.9 43.2209C179.154 42.8101 177.684 39.8913 177.684 39.8913H190.505C190.592 39.3724 190.656 38.8534 190.656 38.3129C190.656 33.7941 187.002 30.0968 182.44 30.0968C177.878 30.0968 174.224 33.7508 174.224 38.3129C174.224 42.875 177.878 46.529 182.44 46.529C184.732 46.529 186.808 45.5993 188.278 44.0858L186.116 41.8804ZM182.462 33.6427C184.581 33.6427 186.397 34.8968 187.262 36.6697H177.684C178.527 34.8751 180.343 33.6427 182.462 33.6427Z" fill="#5EBAE9"/>
<path d="M83.696 41.8804C83.696 41.8804 81.8798 43.5669 79.4798 43.2209C76.7556 42.8101 75.2637 39.8913 75.2637 39.8913H88.1284C88.2148 39.3724 88.2797 38.8534 88.2797 38.3129C88.2797 33.7941 84.6257 30.0968 80.0636 30.0968C75.5015 30.0968 71.8475 33.7508 71.8475 38.3129C71.8475 42.875 75.5015 46.529 80.0636 46.529C82.3555 46.529 84.4311 45.5993 85.9014 44.0858L83.696 41.8804ZM80.0636 33.6427C82.1825 33.6427 83.9987 34.8968 84.8635 36.6697H75.2637C76.1285 34.8751 77.9231 33.6427 80.0636 33.6427Z" fill="#5EBAE9"/>
<path d="M67.0476 30.0315V39.9124C67.0476 41.7502 65.5557 43.2421 63.7179 43.2421C61.8801 43.2421 60.3882 41.7502 60.3882 39.9124V21.6641H56.7991V39.9124C56.7991 41.7502 55.3072 43.2421 53.4694 43.2421C51.6316 43.2421 50.1397 41.7502 50.1397 39.9124V30.0964H47.156V40.2367C47.156 43.7394 50.01 46.5934 53.5127 46.5934C55.6099 46.5934 57.4694 45.5556 58.6153 43.9772C59.7612 45.5556 61.6206 46.5934 63.7179 46.5934C67.2206 46.5934 70.0746 43.7394 70.0746 40.2367V30.0099H67.0476V30.0315Z" fill="#5EBAE9"/>
<path d="M98.4633 30.2482C94.0093 30.2482 90.3986 33.8589 90.3986 38.3129C90.3986 42.7669 94.0093 46.3777 98.4633 46.3777C102.917 46.3777 106.528 42.7669 106.528 38.3129C106.528 33.8589 102.917 30.2482 98.4633 30.2482ZM98.0309 43.1993C95.3498 43.1993 93.1445 41.0156 93.1445 38.3129C93.1445 35.6103 95.3282 33.4265 98.0309 33.4265C100.734 33.4265 102.917 35.6103 102.917 38.3129C102.917 41.0156 100.734 43.1993 98.0309 43.1993Z" fill="#5EBAE9"/>
<path d="M93.1444 21.6641H89.5553V46.7015H93.1444V21.6641Z" fill="#5EBAE9"/>
<path d="M226.461 52.5829H42.0317V53.2532H226.461V52.5829Z" fill="#5EBAE9"/>
<path d="M161.252 71.3718H149.144C148.863 71.3718 148.668 71.1773 148.668 70.8962V66.7881C148.668 66.5287 148.863 66.3125 149.144 66.3125H161.252C161.511 66.3125 161.727 66.5071 161.727 66.7881V70.8962C161.706 71.134 161.511 71.3718 161.252 71.3718Z" fill="#5EBAE9"/>
<path d="M160.927 57.4697H149.965C147.89 57.4697 146.441 58.767 146.441 60.9291V71.3722H151.241V62.875C151.241 62.1399 151.738 61.8156 152.408 61.794H159.587V61.7724H160.927C162.095 61.7724 163.068 60.7994 163.068 59.6319C163.068 58.4643 162.095 57.4697 160.927 57.4697Z" fill="#5EBAE9"/>
<path d="M160.927 80.9288H149.965C147.89 80.9288 146.441 79.6316 146.441 77.4694V67.0264H151.241V75.5235C151.241 76.2587 151.738 76.583 152.408 76.6046H159.587V76.6262H160.927C162.095 76.6262 163.068 77.5992 163.068 78.7667C163.068 79.9343 162.095 80.9288 160.927 80.9288Z" fill="#5EBAE9"/>
<path d="M7.8734 94.1516H4.9484L4.5038 95.4971H2.0936L5.1005 87.2486H7.7447L10.7399 95.4971H8.318L7.8734 94.1516ZM7.3001 92.3966L6.4109 89.729L5.5334 92.3966H7.3001ZM21.3669 95.4971H19.0737L16.02 90.8873V95.4971H13.7268V87.2486H16.02L19.0737 91.9169V87.2486H21.3669V95.4971ZM22.2988 92.2094C22.2988 91.5308 22.4197 90.938 22.6615 90.431C22.9111 89.924 23.2465 89.534 23.6677 89.261C24.0967 88.988 24.5725 88.8515 25.0951 88.8515C25.5475 88.8515 25.9375 88.9412 26.2651 89.1206C26.5927 89.3 26.8462 89.5418 27.0256 89.846V88.9334H29.3188V95.4971H27.0256V94.5845C26.8462 94.8887 26.5888 95.1305 26.2534 95.3099C25.9258 95.4893 25.5397 95.579 25.0951 95.579C24.5725 95.579 24.0967 95.4425 23.6677 95.1695C23.2465 94.8965 22.9111 94.5065 22.6615 93.9995C22.4197 93.4847 22.2988 92.888 22.2988 92.2094ZM27.0256 92.2094C27.0256 91.7882 26.9086 91.4567 26.6746 91.2149C26.4484 90.9731 26.1676 90.8522 25.8322 90.8522C25.489 90.8522 25.2043 90.9731 24.9781 91.2149C24.7519 91.4489 24.6388 91.7804 24.6388 92.2094C24.6388 92.6306 24.7519 92.966 24.9781 93.2156C25.2043 93.4574 25.489 93.5783 25.8322 93.5783C26.1676 93.5783 26.4484 93.4574 26.6746 93.2156C26.9086 92.9738 27.0256 92.6384 27.0256 92.2094ZM34.4982 93.5432V95.4971H33.5037C31.8267 95.4971 30.9882 94.6664 30.9882 93.005V90.8405H30.1809V88.9334H30.9882V87.3422H33.2931V88.9334H34.4865V90.8405H33.2931V93.0401C33.2931 93.2195 33.3321 93.3482 33.4101 93.4262C33.4959 93.5042 33.6363 93.5432 33.8313 93.5432H34.4982ZM36.7083 88.325C36.3027 88.325 35.9751 88.2158 35.7255 87.9974C35.4837 87.7712 35.3628 87.4904 35.3628 87.155C35.3628 86.8118 35.4837 86.5271 35.7255 86.3009C35.9751 86.0747 36.3027 85.9616 36.7083 85.9616C37.1061 85.9616 37.4259 86.0747 37.6677 86.3009C37.9173 86.5271 38.0421 86.8118 38.0421 87.155C38.0421 87.4904 37.9173 87.7712 37.6677 87.9974C37.4259 88.2158 37.1061 88.325 36.7083 88.325ZM37.8432 88.9334V95.4971H35.55V88.9334H37.8432ZM42.2028 95.579C41.5476 95.579 40.9587 95.4425 40.4361 95.1695C39.9213 94.8965 39.5157 94.5065 39.2193 93.9995C38.9229 93.4925 38.7747 92.8958 38.7747 92.2094C38.7747 91.5308 38.9229 90.938 39.2193 90.431C39.5235 89.924 39.933 89.534 40.4478 89.261C40.9704 88.988 41.5593 88.8515 42.2145 88.8515C42.8697 88.8515 43.4547 88.988 43.9695 89.261C44.4921 89.534 44.9016 89.924 45.198 90.431C45.5022 90.938 45.6543 91.5308 45.6543 92.2094C45.6543 92.888 45.5022 93.4847 45.198 93.9995C44.9016 94.5065 44.4921 94.8965 43.9695 95.1695C43.4469 95.4425 42.858 95.579 42.2028 95.579ZM42.2028 93.59C42.5226 93.59 42.7878 93.473 42.9984 93.239C43.2168 92.9972 43.326 92.654 43.326 92.2094C43.326 91.7648 43.2168 91.4255 42.9984 91.1915C42.7878 90.9575 42.5265 90.8405 42.2145 90.8405C41.9025 90.8405 41.6412 90.9575 41.4306 91.1915C41.22 91.4255 41.1147 91.7648 41.1147 92.2094C41.1147 92.6618 41.2161 93.005 41.4189 93.239C41.6217 93.473 41.883 93.59 42.2028 93.59ZM50.8812 88.8749C51.6378 88.8749 52.2384 89.1284 52.683 89.6354C53.1276 90.1346 53.3499 90.8132 53.3499 91.6712V95.4971H51.0567V91.9754C51.0567 91.601 50.9592 91.3085 50.7642 91.0979C50.5692 90.8795 50.3079 90.7703 49.9803 90.7703C49.6371 90.7703 49.368 90.8795 49.173 91.0979C48.978 91.3085 48.8805 91.601 48.8805 91.9754V95.4971H46.5873V88.9334H48.8805V89.8694C49.0833 89.573 49.3563 89.3351 49.6995 89.1557C50.0427 88.9685 50.4366 88.8749 50.8812 88.8749ZM54.2338 92.2094C54.2338 91.5308 54.3547 90.938 54.5965 90.431C54.8461 89.924 55.1815 89.534 55.6027 89.261C56.0317 88.988 56.5075 88.8515 57.0301 88.8515C57.4825 88.8515 57.8725 88.9412 58.2001 89.1206C58.5277 89.3 58.7812 89.5418 58.9606 89.846V88.9334H61.2538V95.4971H58.9606V94.5845C58.7812 94.8887 58.5238 95.1305 58.1884 95.3099C57.8608 95.4893 57.4747 95.579 57.0301 95.579C56.5075 95.579 56.0317 95.4425 55.6027 95.1695C55.1815 94.8965 54.8461 94.5065 54.5965 93.9995C54.3547 93.4847 54.2338 92.888 54.2338 92.2094ZM58.9606 92.2094C58.9606 91.7882 58.8436 91.4567 58.6096 91.2149C58.3834 90.9731 58.1026 90.8522 57.7672 90.8522C57.424 90.8522 57.1393 90.9731 56.9131 91.2149C56.6869 91.4489 56.5738 91.7804 56.5738 92.2094C56.5738 92.6306 56.6869 92.966 56.9131 93.2156C57.1393 93.4574 57.424 93.5783 57.7672 93.5783C58.1026 93.5783 58.3834 93.4574 58.6096 93.2156C58.8436 92.9738 58.9606 92.6384 58.9606 92.2094ZM64.8538 86.8391V95.4971H62.5606V86.8391H64.8538ZM73.6173 94.1516H70.6923L70.2477 95.4971H67.8375L70.8444 87.2486H73.4886L76.4838 95.4971H74.0619L73.6173 94.1516ZM73.044 92.3966L72.1548 89.729L71.2773 92.3966H73.044ZM86.9306 88.9334L85.2575 95.4971H82.6835L81.7709 91.5191L80.8232 95.4971H78.2609L76.5995 88.9334H78.881L79.6181 93.2858L80.5892 88.9334H83.0462L84.0524 93.2975L84.7778 88.9334H86.9306ZM87.2086 92.2094C87.2086 91.5308 87.3295 90.938 87.5713 90.431C87.8209 89.924 88.1563 89.534 88.5775 89.261C89.0065 88.988 89.4823 88.8515 90.0049 88.8515C90.4573 88.8515 90.8473 88.9412 91.1749 89.1206C91.5025 89.3 91.756 89.5418 91.9354 89.846V88.9334H94.2286V95.4971H91.9354V94.5845C91.756 94.8887 91.4986 95.1305 91.1632 95.3099C90.8356 95.4893 90.4495 95.579 90.0049 95.579C89.4823 95.579 89.0065 95.4425 88.5775 95.1695C88.1563 94.8965 87.8209 94.5065 87.5713 93.9995C87.3295 93.4847 87.2086 92.888 87.2086 92.2094ZM91.9354 92.2094C91.9354 91.7882 91.8184 91.4567 91.5844 91.2149C91.3582 90.9731 91.0774 90.8522 90.742 90.8522C90.3988 90.8522 90.1141 90.9731 89.8879 91.2149C89.6617 91.4489 89.5486 91.7804 89.5486 92.2094C89.5486 92.6306 89.6617 92.966 89.8879 93.2156C90.1141 93.4574 90.3988 93.5783 90.742 93.5783C91.0774 93.5783 91.3582 93.4574 91.5844 93.2156C91.8184 92.9738 91.9354 92.6384 91.9354 92.2094ZM97.8286 90.0917C98.086 89.7173 98.398 89.4209 98.7646 89.2025C99.1312 88.9841 99.5251 88.8749 99.9463 88.8749V91.3202H99.3028C98.8036 91.3202 98.4331 91.4177 98.1913 91.6127C97.9495 91.8077 97.8286 92.147 97.8286 92.6306V95.4971H95.5354V88.9334H97.8286V90.0917ZM100.394 92.2094C100.394 91.5308 100.515 90.938 100.757 90.431C101.006 89.924 101.346 89.534 101.775 89.261C102.204 88.988 102.679 88.8515 103.202 88.8515C103.623 88.8515 103.998 88.9412 104.325 89.1206C104.661 89.2922 104.922 89.5301 105.109 89.8343V86.8391H107.414V95.4971H105.109V94.5845C104.93 94.8887 104.676 95.1305 104.349 95.3099C104.021 95.4893 103.635 95.579 103.19 95.579C102.668 95.579 102.192 95.4425 101.763 95.1695C101.342 94.8965 101.006 94.5065 100.757 93.9995C100.515 93.4847 100.394 92.888 100.394 92.2094ZM105.121 92.2094C105.121 91.7882 105.004 91.4567 104.77 91.2149C104.544 90.9731 104.263 90.8522 103.927 90.8522C103.584 90.8522 103.299 90.9731 103.073 91.2149C102.847 91.4489 102.734 91.7804 102.734 92.2094C102.734 92.6306 102.847 92.966 103.073 93.2156C103.299 93.4574 103.584 93.5783 103.927 93.5783C104.263 93.5783 104.544 93.4574 104.77 93.2156C105.004 92.9738 105.121 92.6384 105.121 92.2094ZM122.578 87.2486L120.554 95.4971H117.734L116.6 90.4427L115.441 95.4971H112.622L110.621 87.2486H113.101L114.061 92.888L115.359 87.2486H117.875L119.138 92.8412L120.098 87.2486H122.578ZM124.71 88.325C124.304 88.325 123.976 88.2158 123.727 87.9974C123.485 87.7712 123.364 87.4904 123.364 87.155C123.364 86.8118 123.485 86.5271 123.727 86.3009C123.976 86.0747 124.304 85.9616 124.71 85.9616C125.107 85.9616 125.427 86.0747 125.669 86.3009C125.919 86.5271 126.043 86.8118 126.043 87.155C126.043 87.4904 125.919 87.7712 125.669 87.9974C125.427 88.2158 125.107 88.325 124.71 88.325ZM125.845 88.9334V95.4971H123.551V88.9334H125.845ZM131.444 88.8749C132.201 88.8749 132.802 89.1284 133.246 89.6354C133.691 90.1346 133.913 90.8132 133.913 91.6712V95.4971H131.62V91.9754C131.62 91.601 131.522 91.3085 131.327 91.0979C131.132 90.8795 130.871 90.7703 130.544 90.7703C130.2 90.7703 129.931 90.8795 129.736 91.0979C129.541 91.3085 129.444 91.601 129.444 91.9754V95.4971H127.151V88.9334H129.444V89.8694C129.647 89.573 129.92 89.3351 130.263 89.1557C130.606 88.9685 131 88.8749 131.444 88.8749ZM139.465 88.8749C140.222 88.8749 140.823 89.1284 141.267 89.6354C141.712 90.1346 141.934 90.8132 141.934 91.6712V95.4971H139.641V91.9754C139.641 91.601 139.543 91.3085 139.348 91.0979C139.153 90.8795 138.892 90.7703 138.564 90.7703C138.221 90.7703 137.952 90.8795 137.757 91.0979C137.562 91.3085 137.465 91.601 137.465 91.9754V95.4971H135.171V88.9334H137.465V89.8694C137.667 89.573 137.94 89.3351 138.284 89.1557C138.627 88.9685 139.021 88.8749 139.465 88.8749ZM144.351 88.325C143.945 88.325 143.617 88.2158 143.368 87.9974C143.126 87.7712 143.005 87.4904 143.005 87.155C143.005 86.8118 143.126 86.5271 143.368 86.3009C143.617 86.0747 143.945 85.9616 144.351 85.9616C144.748 85.9616 145.068 86.0747 145.31 86.3009C145.56 86.5271 145.684 86.8118 145.684 87.155C145.684 87.4904 145.56 87.7712 145.31 87.9974C145.068 88.2158 144.748 88.325 144.351 88.325ZM145.486 88.9334V95.4971H143.192V88.9334H145.486ZM151.085 88.8749C151.842 88.8749 152.443 89.1284 152.887 89.6354C153.332 90.1346 153.554 90.8132 153.554 91.6712V95.4971H151.261V91.9754C151.261 91.601 151.163 91.3085 150.968 91.0979C150.773 90.8795 150.512 90.7703 150.184 90.7703C149.841 90.7703 149.572 90.8795 149.377 91.0979C149.182 91.3085 149.085 91.601 149.085 91.9754V95.4971H146.791V88.9334H149.085V89.8694C149.287 89.573 149.56 89.3351 149.904 89.1557C150.247 88.9685 150.641 88.8749 151.085 88.8749ZM157.234 88.8515C157.679 88.8515 158.065 88.9412 158.393 89.1206C158.728 89.3 158.985 89.5418 159.165 89.846V88.9334H161.458V95.4269C161.458 96.0431 161.341 96.5969 161.107 97.0883C160.873 97.5875 160.506 97.9853 160.007 98.2817C159.516 98.5781 158.892 98.7263 158.135 98.7263C157.121 98.7263 156.31 98.4884 155.702 98.0126C155.093 97.5368 154.746 96.8894 154.66 96.0704H156.918C156.965 96.281 157.082 96.4448 157.269 96.5618C157.457 96.6788 157.698 96.7373 157.995 96.7373C158.775 96.7373 159.165 96.3005 159.165 95.4269V94.5845C158.985 94.8887 158.728 95.1305 158.393 95.3099C158.065 95.4893 157.679 95.579 157.234 95.579C156.712 95.579 156.236 95.4425 155.807 95.1695C155.386 94.8965 155.05 94.5065 154.801 93.9995C154.559 93.4847 154.438 92.888 154.438 92.2094C154.438 91.5308 154.559 90.938 154.801 90.431C155.05 89.924 155.386 89.534 155.807 89.261C156.236 88.988 156.712 88.8515 157.234 88.8515ZM159.165 92.2094C159.165 91.7882 159.048 91.4567 158.814 91.2149C158.588 90.9731 158.307 90.8522 157.971 90.8522C157.628 90.8522 157.343 90.9731 157.117 91.2149C156.891 91.4489 156.778 91.7804 156.778 92.2094C156.778 92.6306 156.891 92.966 157.117 93.2156C157.343 93.4574 157.628 93.5783 157.971 93.5783C158.307 93.5783 158.588 93.4574 158.814 93.2156C159.048 92.9738 159.165 92.6384 159.165 92.2094ZM164.723 91.3553C164.723 90.5441 164.891 89.8226 165.226 89.1908C165.57 88.5512 166.053 88.0559 166.677 87.7049C167.301 87.3461 168.019 87.1667 168.83 87.1667C169.86 87.1667 170.725 87.4436 171.427 87.9974C172.129 88.5434 172.582 89.2883 172.785 90.2321H170.316C170.168 89.9201 169.961 89.6822 169.696 89.5184C169.438 89.3546 169.138 89.2727 168.795 89.2727C168.265 89.2727 167.839 89.4638 167.52 89.846C167.208 90.2204 167.052 90.7235 167.052 91.3553C167.052 91.9949 167.208 92.5058 167.52 92.888C167.839 93.2624 168.265 93.4496 168.795 93.4496C169.138 93.4496 169.438 93.3677 169.696 93.2039C169.961 93.0401 170.168 92.8022 170.316 92.4902H172.785C172.582 93.434 172.129 94.1828 171.427 94.7366C170.725 95.2826 169.86 95.5556 168.83 95.5556C168.019 95.5556 167.301 95.3801 166.677 95.0291C166.053 94.6703 165.57 94.175 165.226 93.5432C164.891 92.9036 164.723 92.1743 164.723 91.3553ZM176.924 95.579C176.269 95.579 175.68 95.4425 175.158 95.1695C174.643 94.8965 174.237 94.5065 173.941 93.9995C173.644 93.4925 173.496 92.8958 173.496 92.2094C173.496 91.5308 173.644 90.938 173.941 90.431C174.245 89.924 174.654 89.534 175.169 89.261C175.692 88.988 176.281 88.8515 176.936 88.8515C177.591 88.8515 178.176 88.988 178.691 89.261C179.214 89.534 179.623 89.924 179.919 90.431C180.224 90.938 180.376 91.5308 180.376 92.2094C180.376 92.888 180.224 93.4847 179.919 93.9995C179.623 94.5065 179.214 94.8965 178.691 95.1695C178.168 95.4425 177.579 95.579 176.924 95.579ZM176.924 93.59C177.244 93.59 177.509 93.473 177.72 93.239C177.938 92.9972 178.047 92.654 178.047 92.2094C178.047 91.7648 177.938 91.4255 177.72 91.1915C177.509 90.9575 177.248 90.8405 176.936 90.8405C176.624 90.8405 176.363 90.9575 176.152 91.1915C175.941 91.4255 175.836 91.7648 175.836 92.2094C175.836 92.6618 175.938 93.005 176.14 93.239C176.343 93.473 176.604 93.59 176.924 93.59ZM189.885 88.8749C190.712 88.8749 191.359 89.1245 191.827 89.6237C192.303 90.1229 192.541 90.8054 192.541 91.6712V95.4971H190.248V91.9754C190.248 91.6244 190.15 91.3514 189.955 91.1564C189.76 90.9614 189.495 90.8639 189.159 90.8639C188.824 90.8639 188.559 90.9614 188.364 91.1564C188.169 91.3514 188.071 91.6244 188.071 91.9754V95.4971H185.778V91.9754C185.778 91.6244 185.681 91.3514 185.486 91.1564C185.298 90.9614 185.037 90.8639 184.702 90.8639C184.359 90.8639 184.089 90.9614 183.894 91.1564C183.699 91.3514 183.602 91.6244 183.602 91.9754V95.4971H181.309V88.9334H183.602V89.7992C183.805 89.5184 184.066 89.2961 184.386 89.1323C184.713 88.9607 185.088 88.8749 185.509 88.8749C185.993 88.8749 186.422 88.9802 186.796 89.1908C187.178 89.4014 187.479 89.6978 187.697 90.08C187.931 89.7212 188.239 89.4326 188.621 89.2142C189.003 88.988 189.425 88.8749 189.885 88.8749ZM196.09 89.846C196.27 89.5418 196.523 89.3 196.851 89.1206C197.178 88.9412 197.564 88.8515 198.009 88.8515C198.532 88.8515 199.004 88.988 199.425 89.261C199.854 89.534 200.189 89.924 200.431 90.431C200.681 90.938 200.805 91.5308 200.805 92.2094C200.805 92.888 200.681 93.4847 200.431 93.9995C200.189 94.5065 199.854 94.8965 199.425 95.1695C199.004 95.4425 198.532 95.579 198.009 95.579C197.564 95.579 197.178 95.4893 196.851 95.3099C196.531 95.1305 196.277 94.8887 196.09 94.5845V98.6327H193.797V88.9334H196.09V89.846ZM198.477 92.2094C198.477 91.7804 198.36 91.4489 198.126 91.2149C197.9 90.9731 197.619 90.8522 197.284 90.8522C196.948 90.8522 196.664 90.9731 196.43 91.2149C196.203 91.4567 196.09 91.7882 196.09 92.2094C196.09 92.6384 196.203 92.9738 196.43 93.2156C196.664 93.4574 196.948 93.5783 197.284 93.5783C197.619 93.5783 197.9 93.4574 198.126 93.2156C198.36 92.966 198.477 92.6306 198.477 92.2094ZM201.375 92.2094C201.375 91.5308 201.496 90.938 201.738 90.431C201.987 89.924 202.323 89.534 202.744 89.261C203.173 88.988 203.649 88.8515 204.171 88.8515C204.624 88.8515 205.014 88.9412 205.341 89.1206C205.669 89.3 205.922 89.5418 206.102 89.846V88.9334H208.395V95.4971H206.102V94.5845C205.922 94.8887 205.665 95.1305 205.33 95.3099C205.002 95.4893 204.616 95.579 204.171 95.579C203.649 95.579 203.173 95.4425 202.744 95.1695C202.323 94.8965 201.987 94.5065 201.738 93.9995C201.496 93.4847 201.375 92.888 201.375 92.2094ZM206.102 92.2094C206.102 91.7882 205.985 91.4567 205.751 91.2149C205.525 90.9731 205.244 90.8522 204.908 90.8522C204.565 90.8522 204.281 90.9731 204.054 91.2149C203.828 91.4489 203.715 91.7804 203.715 92.2094C203.715 92.6306 203.828 92.966 204.054 93.2156C204.281 93.4574 204.565 93.5783 204.908 93.5783C205.244 93.5783 205.525 93.4574 205.751 93.2156C205.985 92.9738 206.102 92.6384 206.102 92.2094ZM213.996 88.8749C214.752 88.8749 215.353 89.1284 215.797 89.6354C216.242 90.1346 216.464 90.8132 216.464 91.6712V95.4971H214.171V91.9754C214.171 91.601 214.074 91.3085 213.879 91.0979C213.684 90.8795 213.422 90.7703 213.095 90.7703C212.752 90.7703 212.482 90.8795 212.287 91.0979C212.092 91.3085 211.995 91.601 211.995 91.9754V95.4971H209.702V88.9334H211.995V89.8694C212.198 89.573 212.471 89.3351 212.814 89.1557C213.157 88.9685 213.551 88.8749 213.996 88.8749ZM224.789 88.9334L220.624 98.621H218.132L219.7 95.2163L217.009 88.9334H219.56L220.94 92.654L222.274 88.9334H224.789Z" fill="#222769"/>
</svg>
